<?xml version="1.0" encoding="UTF-8" standalone="no"?>
<!-- Generator: Adobe Illustrator 16.2.1, SVG Export Plug-In . SVG Version: 6.00 Build 0)  -->

<svg
   xmlns:dc="http://purl.org/dc/elements/1.1/"
   xmlns:cc="http://creativecommons.org/ns#"
   xmlns:rdf="http://www.w3.org/1999/02/22-rdf-syntax-ns#"
   xmlns:svg="http://www.w3.org/2000/svg"
   xmlns="http://www.w3.org/2000/svg"
   xmlns:sodipodi="http://sodipodi.sourceforge.net/DTD/sodipodi-0.dtd"
   xmlns:inkscape="http://www.inkscape.org/namespaces/inkscape"
   version="1.1"
   id="Layer_1"
   x="0px"
   y="0px"
   width="512px"
   height="512px"
   viewBox="0 0 512 512"
   style="enable-background:new 0 0 512 512;"
   xml:space="preserve"
   inkscape:version="0.91 r13725"
   sodipodi:docname="coffee-unknown.svg"><metadata
     id="metadata4309"><rdf:RDF><cc:Work
         rdf:about=""><dc:format>image/svg+xml</dc:format><dc:type
           rdf:resource="http://purl.org/dc/dcmitype/StillImage" /><dc:title></dc:title></cc:Work></rdf:RDF></metadata><defs
     id="defs4307" /><sodipodi:namedview
     pagecolor="#ffffff"
     bordercolor="#666666"
     borderopacity="1"
     objecttolerance="10"
     gridtolerance="10"
     guidetolerance="10"
     inkscape:pageopacity="0"
     inkscape:pageshadow="2"
     inkscape:window-width="1366"
     inkscape:window-height="720"
     id="namedview4305"
     showgrid="false"
     inkscape:zoom="1.0820312"
     inkscape:cx="256"
     inkscape:cy="256"
     inkscape:window-x="0"
     inkscape:window-y="0"
     inkscape:window-maximized="1"
     inkscape:current-layer="Layer_1" /><path
     d="m 383.1,257.4 c 0.6,-5.4 0.9,-10 0.9,-13.8 0,-19.6 -3.3,-19.7 -16,-19.7 -195.46329,-33.07868 -220.79761,-1.35819 -288,0 -12.7,0 -16,0.1 -16,19.7 0,19.6 7.7,61.3 28.3,111 20.6,49.7 44.4,71.6 61.2,86.2 l 0.1,-0.2 c 5.1,4.6 11.8,7.3 19.2,7.3 l 102.4,0 c 7.4,0 14.1,-2.7 19.2,-7.3 l 0.1,0.2 c 9,-7.8 20,-17.8 31.4,-32.9 4.7,2 9.8,3.7 15.4,5 8.4,2 16.8,3 24.8,3 24,0 45.6,-9.2 60.8,-25.8 13.4,-14.6 21.1,-34.4 21.1,-54.2 0,-38.9 -28,-71.4 -64.9,-78.5 z m -17,126.8 c -8.6,0 -15.6,-1.2 -22.1,-4.2 4,-8 7.9,-15.9 11.7,-25.1 10.1,-24.4 17.1,-47 21.6,-65.8 22,4.3 38.7,23.8 38.7,47.1 0,22.7 -17.2,48 -49.9,48 z"
     id="path4303"
     inkscape:connector-curvature="0"
     sodipodi:nodetypes="csccssccssccccscscscccss"
     style="opacity:0.687" /></svg>