<?xml version="1.0" encoding="UTF-8" standalone="no"?>
<!-- Created with Inkscape (http://www.inkscape.org/) -->

<svg
   xmlns:dc="http://purl.org/dc/elements/1.1/"
   xmlns:cc="http://creativecommons.org/ns#"
   xmlns:rdf="http://www.w3.org/1999/02/22-rdf-syntax-ns#"
   xmlns:svg="http://www.w3.org/2000/svg"
   xmlns="http://www.w3.org/2000/svg"
   xmlns:sodipodi="http://sodipodi.sourceforge.net/DTD/sodipodi-0.dtd"
   xmlns:inkscape="http://www.inkscape.org/namespaces/inkscape"
   width="1276.4839"
   height="1275.8217"
   id="svg2"
   version="1.1"
   inkscape:version="0.48.0 r9654"
   sodipodi:docname="Neues Dokument 1">
  <defs
     id="defs4" />
  <sodipodi:namedview
     id="base"
     pagecolor="#ffffff"
     bordercolor="#666666"
     borderopacity="1.0"
     inkscape:pageopacity="0.0"
     inkscape:pageshadow="2"
     inkscape:zoom="0.24748737"
     inkscape:cx="480.39187"
     inkscape:cy="17.936824"
     inkscape:document-units="px"
     inkscape:current-layer="g3578"
     showgrid="false"
     showguides="true"
     inkscape:guide-bbox="true"
     fit-margin-top="0"
     fit-margin-left="0"
     fit-margin-right="0"
     fit-margin-bottom="0"
     inkscape:window-width="1280"
     inkscape:window-height="1004"
     inkscape:window-x="-4"
     inkscape:window-y="-3"
     inkscape:window-maximized="1" />
  <metadata
     id="metadata7">
    <rdf:RDF>
      <cc:Work
         rdf:about="">
        <dc:format>image/svg+xml</dc:format>
        <dc:type
           rdf:resource="http://purl.org/dc/dcmitype/StillImage" />
        <dc:title></dc:title>
      </cc:Work>
    </rdf:RDF>
  </metadata>
  <g
     id="g3578"
     inkscape:groupmode="layer"
     inkscape:label="original Kopie"
     style="display:inline"
     transform="translate(-1256.5379,202.29651)">
    <g
       id="g4597">
      <path
         sodipodi:nodetypes="ccccccccccc"
         inkscape:connector-curvature="0"
         id="path3580"
         d="m 2442.6198,1073.5251 c 39.9383,-213.14756 69.4593,-428.48223 84.346,-644.85182 5.9637,-111.08821 9.9343,-222.87322 0.023,-334.069374 -11.0335,-56.909903 -5.5567,-103.5243495 -28.2987,-182.016326 -250.6749,-10.010196 -511.122,-37.9989 -760.2416,-66.02551 -136.2385,-15.04339 -258.5337,-26.44736 -400.0917,-48.85858 50.2941,154.309612 73.2146,288.221544 69.3715,559.40567 -12.7012,231.93028 -72.7267,465.19621 -151.1904,682.87444 61.1323,-12.4967 92.5659,-23.0953 135.3973,-28.8235 247.9454,-48.92017 504.3948,-80.06901 755.9022,-39.84496 102.5101,19.88774 204.0033,49.24166 294.7824,102.20996 z"
         style="fill:#ff0000;fill-opacity:1;fill-rule:nonzero;stroke:none" />
      <path
         inkscape:connector-curvature="0"
         id="path3786"
         d="m 1962.921,761.0686 c 36.8441,-21.76194 74.5795,-42.28267 111.6824,-64.02578 52.8367,-26.65751 102.8359,-58.45515 151.4007,-92.17561 13.1217,-13.25613 55.7557,-30.18772 39.3182,-50.35516 -23.4234,-16.58164 -52.5727,-16.98682 -78.6069,-27.97816 -40.4947,-13.07353 -85.5501,-23.14841 -116.3998,-54.28518 -32.065,-30.03703 5.6614,-61.93532 23.8705,-86.73682 52.5387,-64.81298 107.9613,-127.67994 153.1799,-198.02204 23.7263,-31.61009 -17.3541,-43.28383 -42.0109,-39.5545 -51.1759,4.86202 -101.0766,18.64076 -150.9945,30.13911 -21.4952,4.52563 -65.472,29.4607 -73.446,-4.6762 -0.6555,-41.31393 21.8685,-82.339539 53.209,-108.966687 24.8202,-23.108653 61.2166,-18.318629 90.8841,-31.251641 42.2802,-6.810998 84.9495,-12.818197 127.7827,-8.214864 36.2142,4.874634 76.2705,9.359661 104.7658,34.478676 33.1781,21.688317 23.5668,64.391426 3.6525,91.454856 -35.7396,67.36657 -93.2133,119.06285 -138.7975,179.26038 -14.8888,23.21365 -57.5375,57.02506 -35.391,84.41345 43.5816,30.10901 94.5966,47.04123 139.4492,75.22822 24.88,15.79181 60.0553,33.74386 58.6126,67.99546 -0.1997,47.36041 -26.6381,91.75103 -65.7678,117.53163 -42.9714,31.40191 -92.149,52.99233 -138.1068,79.51337 -68.9664,34.81883 -146.4859,62.10527 -224.7493,50.10492 -29.6678,-7.84684 -17.784,-39.91738 6.4629,-43.87743 z"
         style="fill:#ffffff;fill-opacity:1;fill-rule:nonzero;stroke:none" />
      <path
         sodipodi:nodetypes="cccccccccccccccccccccccc"
         inkscape:connector-curvature="0"
         id="path3800"
         d="m 1854.446,252.21235 c 0.3212,33.94623 -1.4206,68.10347 2.616,101.74067 -0.8357,32.72072 1.2431,65.55344 -2.8272,98.10543 -0.074,32.44676 1.8946,65.0558 -2.3552,97.29588 0.1911,24.06256 1.3092,48.31021 -2.3666,72.0637 2.0252,28.83519 -3.507,57.10365 -4.7348,85.68609 -0.4885,29.18189 -3.5041,82.0735 -5.2963,111.15138 -8.2589,4.04439 -37.7446,2.60981 -58.0083,13.83645 -26.016,9.03717 -53.7805,12.95909 -80.0473,19.51859 -25.2733,4.91327 -50.2324,11.05151 -75.7845,13.55009 -23.4292,1.31132 -46.1572,8.26873 -69.6646,7.55098 -14.5442,2.22457 -47.7161,11.62844 -52.0976,-0.51586 8.3749,-24.77632 11.828,-51.26572 15.7679,-77.14077 3.0698,-29.68514 14.0239,-58.28955 14.8613,-88.08448 8.6471,-26.54516 7.4395,-54.9124 13.7473,-81.37451 1.527,-26.89777 5.7346,-53.43412 7.626,-80.4681 4.061,-21.88264 0.4222,-45.947 4.3796,-68.50291 1.4252,-24.11781 -1.1928,-48.02615 -2.3292,-71.90442 0.9815,-24.41225 -8.52,-47.71677 -9.6252,-72.16196 23.0355,-5.7122 44.6572,-16.06075 68.0608,-20.90139 29.9729,-10.34344 60.4358,-18.30561 90.4377,-27.40711 22.3778,-4.97928 44.9785,-9.76237 66.7616,-16.82503 19.8189,-2.31089 40.1572,-8.19221 60.3222,-10.68046 7.0794,-0.10969 13.961,-2.10559 20.5564,-4.53226 z"
         style="fill:#ffffff;fill-opacity:1;fill-rule:nonzero;stroke:none" />
      <path
         inkscape:connector-curvature="0"
         id="path3804"
         d="m 1606.161,421.8311 c -4.8212,-9.67125 -9.6425,-19.3425 -14.4637,-29.01375 10.1524,-3.26137 18.9547,-9.23634 29.5338,-11.34397 7.9041,-3.38122 15.6787,-6.36173 23.9623,-8.76094 7.469,-0.24738 14.7074,-2.27072 21.9471,-4.53673 8.834,-2.20476 17.1312,-3.86941 25.5595,-6.06621 5.7506,-3.28883 15.25,-2.01873 18.6446,-5.02097 6.785,-0.32133 13.9697,1.26339 20.1915,-2.00611 7.9645,0.98067 14.8543,-3.37815 22.7883,-2.45902 7.5929,1.60424 14.1364,-2.57122 21.5101,-2.21105 14.9547,0 29.9094,0 44.864,0 -0.8033,10.41542 -1.6066,20.83083 -2.41,31.24625 -12.0525,0 -24.105,0 -36.1575,0 -7.1331,5.40456 -17.9362,-0.45751 -25.817,4.49115 -10.309,-1.58985 -19.7962,1.94916 -29.7557,2.13702 -7.2176,2.03766 -14.8695,4.47057 -22.7922,4.48871 -8.2862,1.13647 -15.7136,5.53906 -24.1844,6.44192 -8.4144,3.16038 -17.3693,3.76079 -26.0199,5.40336 -6.032,2.42843 -13.497,2.63658 -19.0748,7.19447 -7.4589,3.66082 -15.532,5.45919 -23.3045,8.15154 -1.6518,0.67737 -3.3063,1.35981 -5.0215,1.86433 z"
         style="fill:#000000;fill-opacity:1;fill-rule:nonzero;stroke:none" />
      <path
         inkscape:connector-curvature="0"
         id="path3806"
         d="m 1603.7498,522.2636 c -4.0175,-10.415 -8.035,-20.83 -12.0525,-31.245 8.4876,-3.78369 15.9742,-9.07983 25.3141,-10.73175 7.8772,-1.12139 15.0814,-4.87527 23.023,-7.07307 5.5776,-2.24052 12.409,-3.16531 18.5123,-5.48349 6.8508,-3.19613 14.6575,-2.5245 20.9456,-5.65727 8.7455,-2.806 18.358,-2.36151 26.797,-6.19814 4.0037,-0.0808 17.103,-2.47724 24.8135,-4.74759 8.4251,1.08392 14.8688,-2.82688 22.9513,-2.55993 21.41,0.1047 42.823,0.0178 64.2344,0.0462 -0.8033,10.415 -1.6066,20.83 -2.41,31.245 -15.267,0 -30.5341,0 -45.8012,0 -6.1667,5.63124 -16.5242,-0.97007 -22.9684,4.48681 -9.5624,-1.60459 -18.0693,2.84075 -27.4619,2.32767 -9.4421,1.81592 -18.5305,6.7499 -28.3689,6.45336 -7.0314,1.86195 -14.6072,1.94366 -20.5797,6.62685 -6.7258,0.0152 -12.3292,2.7163 -18.4827,4.92959 -6.7661,1.09763 -13.1489,4.28871 -20.0296,6.32653 -7.2166,0.75747 -13.4056,5.13399 -20.5411,6.79749 -2.5306,1.672 -5.2733,2.94566 -7.8952,4.4567 z"
         style="fill:#000000;fill-opacity:1;fill-rule:nonzero;stroke:none" />
      <path
         inkscape:connector-curvature="0"
         id="path3808"
         d="m 1606.161,618.23235 c -5.6246,-10.41542 -11.2491,-20.83083 -16.8737,-31.24625 10.287,-2.92337 20.5295,-6.86081 30.5474,-11.10878 9.2219,-2.37198 18.0842,-6.87995 27.6393,-7.11046 5.9699,-2.66911 13.4682,-3.04085 19.3912,-6.86424 7.0795,-1.79561 14.4265,-1.35258 21.3311,-3.74574 6.4585,-1.10558 13.3785,-1.33383 19.2072,-4.64828 9.6258,-0.1342 18.6237,-3.72453 28.5153,-2.17154 5.3906,-1.24179 9.2977,-6.45414 15.8225,-4.52346 6.9158,0 13.8315,0 20.7472,0 3.384,-4.04712 9.3253,-1.61763 13.957,-2.23125 10.6144,0 21.2287,0 31.843,0 -0.8033,11.15917 -1.6066,22.31833 -2.41,33.4775 -15.267,0 -30.5341,0 -45.8012,0 -5.4444,5.40748 -14.8726,-0.74367 -20.5871,4.49231 -10.4191,-1.31062 -20.2651,1.91922 -30.4873,2.44677 -5.7233,2.6482 -12.4272,2.02177 -20.1089,3.99122 -5.9454,3.39881 -13.7902,0.67711 -19.6896,4.9865 -6.9895,3.40717 -15.5187,2.94403 -22.9649,5.82039 -8.5829,4.47695 -18.8828,3.14576 -27.3017,7.91402 -8.2429,3.85404 -16.5354,7.6656 -25.188,10.52129 0.8037,0 1.6075,0 2.4112,0 z"
         style="fill:#000000;fill-opacity:1;fill-rule:nonzero;stroke:none" />
      <path
         transform="translate(1358.83,-12.687822)"
         d="m 424.26407,128.0726 c 0,68.62069 -63.3165,124.24876 -141.42136,124.24876 -78.10486,0 -141.42135,-55.62807 -141.42135,-124.24876 0,-68.620692 63.31649,-124.2487551 141.42135,-124.2487551 78.10486,0 141.42136,55.6280631 141.42136,124.2487551 z"
         sodipodi:ry="124.24876"
         sodipodi:rx="141.42136"
         sodipodi:cy="128.0726"
         sodipodi:cx="282.84271"
         id="path4590"
         style="color:#000000;fill:#ffffff;fill-opacity:1;fill-rule:evenodd;stroke:none;stroke-width:1;marker:none;visibility:visible;display:inline;overflow:visible;enable-background:accumulate"
         sodipodi:type="arc" />
    </g>
  </g>
</svg>
